<svg xmlns="http://www.w3.org/2000/svg" width="960" height="1152" viewBox="0 0 960 1152" role="img" aria-label="Batuhan Yüksel, Software developer. Selected work: ScreenTextGrab, falcon-dm, frostwall-beam, calder, sift, ironsentinel, byteback, agent-atlas, codebase-audit, deskward, duetto." data-mode="light">
  <defs>
    <radialGradient id="glow" cx="50%" cy="50%" r="50%">
      <stop offset="0%" stop-color="#b45309" stop-opacity="0.2"/>
      <stop offset="100%" stop-color="#f8fafc" stop-opacity="0"/>
    </radialGradient>
    <pattern id="mesh" width="28" height="28" patternUnits="userSpaceOnUse">
      <path d="M 28 0 L 0 0 0 28" fill="none" stroke="#cbd5e1" stroke-width="0.7"/>
      <animateTransform attributeName="patternTransform" type="translate" from="0 0" to="28 0" dur="28s" repeatCount="indefinite"/>
    </pattern>
  </defs>
  <style>
    .display{font-family:Georgia,"Times New Roman",Times,serif}
    .sans{font-family:-apple-system,BlinkMacSystemFont,"Segoe UI",Helvetica,Arial,sans-serif}
    .mono{font-family:ui-monospace,SFMono-Regular,Menlo,Consolas,monospace}
  </style>
  <rect width="960" height="1152" fill="#f8fafc"/>
  <rect width="960" height="1152" fill="url(#mesh)" fill-opacity="0.4"/>
  <circle cx="192" cy="96" r="180" fill="url(#glow)">
    <animate attributeName="cx" values="192;282;192" dur="18s" repeatCount="indefinite"/>
    <animate attributeName="cy" values="72;168;72" dur="22s" repeatCount="indefinite"/>
  </circle>
  <circle cx="749" cy="484" r="220" fill="url(#glow)">
    <animate attributeName="cx" values="749;669;749" dur="24s" repeatCount="indefinite"/>
    <animate attributeName="cy" values="484;574;484" dur="20s" repeatCount="indefinite"/>
  </circle>
  <g>
    <text x="36" y="44" class="mono" font-size="11" fill="#b45309">Istanbul · MIS</text>
    <text x="924" y="44" class="mono" font-size="11" text-anchor="end" fill="#475569">Swift · Go · TypeScript · Rust · Python · C++</text>
    <text x="36" y="92" class="display" font-size="38" fill="#0f172a">Batuhan Yüksel</text>
    <text x="36" y="124" class="sans" font-size="15" fill="#0f172a">Software developer</text>
    <rect x="205" y="111" width="7" height="13" fill="#b45309">
    <animate attributeName="opacity" values="1;1;0;0" dur="1.15s" repeatCount="indefinite" calcMode="discrete"/>
  </rect>
    <text x="36" y="148" class="sans" font-size="13" fill="#475569">macOS apps · CLI tools · application security</text>
    <g>
    <rect x="640" y="70" width="284" height="70" rx="8" fill="#ffffff" stroke="#cbd5e1"/>
    <line x1="648" y1="105" x2="916" y2="105" stroke="#cbd5e1" stroke-width="1"/>
    <path d="M 648 105 L 652.79 110.32 L 657.57 114.94 L 662.36 118.33 L 667.14 120.43 L 671.93 121.67 L 676.71 122.59 L 681.5 123.52 L 686.29 124.37 L 691.07 124.59 L 695.86 123.5 L 700.64 120.59 L 705.43 115.87 L 710.21 109.89 L 715 103.59 L 719.79 97.86 L 724.57 93.3 L 729.36 89.94 L 734.14 87.42 L 738.93 85.24 L 743.71 83.15 L 748.5 81.34 L 753.29 80.38 L 758.07 80.99 L 762.86 83.65 L 767.64 88.32 L 772.43 94.4 L 777.21 100.93 L 782 107 L 786.79 112.05 L 791.57 116.05 L 796.36 119.36 L 801.14 122.45 L 805.93 125.51 L 810.71 128.3 L 815.5 130.19 L 820.29 130.45 L 825.07 128.6 L 829.86 124.71 L 834.64 119.39 L 839.43 113.57 L 844.21 108.14 L 849 103.59 L 853.79 99.88 L 858.57 96.63 L 863.36 93.35 L 868.14 89.89 L 872.93 86.52 L 877.71 83.9 L 882.5 82.78 L 887.29 83.64 L 892.07 86.39 L 896.86 90.46 L 901.64 94.94 L 906.43 99.03 L 911.21 102.35 L 916 105" fill="none" stroke="#b45309" stroke-width="1.25" stroke-linejoin="round" stroke-linecap="round"/>
    <path d="M 648 105 L 652.79 110.32 L 657.57 114.94 L 662.36 118.33 L 667.14 120.43 L 671.93 121.67 L 676.71 122.59 L 681.5 123.52 L 686.29 124.37 L 691.07 124.59 L 695.86 123.5 L 700.64 120.59 L 705.43 115.87 L 710.21 109.89 L 715 103.59 L 719.79 97.86 L 724.57 93.3 L 729.36 89.94 L 734.14 87.42 L 738.93 85.24 L 743.71 83.15 L 748.5 81.34 L 753.29 80.38 L 758.07 80.99 L 762.86 83.65 L 767.64 88.32 L 772.43 94.4 L 777.21 100.93 L 782 107 L 786.79 112.05 L 791.57 116.05 L 796.36 119.36 L 801.14 122.45 L 805.93 125.51 L 810.71 128.3 L 815.5 130.19 L 820.29 130.45 L 825.07 128.6 L 829.86 124.71 L 834.64 119.39 L 839.43 113.57 L 844.21 108.14 L 849 103.59 L 853.79 99.88 L 858.57 96.63 L 863.36 93.35 L 868.14 89.89 L 872.93 86.52 L 877.71 83.9 L 882.5 82.78 L 887.29 83.64 L 892.07 86.39 L 896.86 90.46 L 901.64 94.94 L 906.43 99.03 L 911.21 102.35 L 916 105" fill="none" stroke="#b45309" stroke-width="2.2" stroke-linecap="round" stroke-dasharray="40 335" stroke-dashoffset="0">
      <animate attributeName="stroke-dashoffset" from="0" to="-375" dur="2.8s" repeatCount="indefinite"/>
    </path>
  </g>
    <line x1="36" y1="160" x2="924" y2="160" stroke="#cbd5e1" stroke-width="1" stroke-dasharray="888" stroke-dashoffset="0">
    <animate attributeName="stroke-dashoffset" from="888" to="0" dur="1.3s" fill="freeze"/>
  </line>
  </g>
  <text x="36" y="196" class="display" font-size="24" fill="#0f172a">Selected work</text>
  <text x="36" y="236" class="mono" font-size="11" fill="#475569">macOS</text>
  <g>
    <rect x="36" y="248" width="437" height="108" rx="10" fill="#ffffff" stroke="#cbd5e1"/>
    <text x="52" y="276" class="mono" font-size="11" fill="#b45309">01</text>
    <text x="457" y="276" class="mono" font-size="11" text-anchor="end" fill="#475569">Swift</text>
    <text x="52" y="298" class="sans" font-size="16" font-weight="600" fill="#0f172a">ScreenTextGrab</text>
    <text x="52" y="316" class="sans" font-size="12" fill="#475569">On-device OCR for screen, PDFs, code, and</text>
    <text x="52" y="332" class="sans" font-size="12" fill="#475569">tables.</text>
  </g>
  <g>
    <rect x="487" y="248" width="437" height="108" rx="10" fill="#ffffff" stroke="#cbd5e1"/>
    <text x="503" y="276" class="mono" font-size="11" fill="#b45309">02</text>
    <text x="908" y="276" class="mono" font-size="11" text-anchor="end" fill="#475569">Rust</text>
    <text x="503" y="298" class="sans" font-size="16" font-weight="600" fill="#0f172a">falcon-dm</text>
    <text x="503" y="316" class="sans" font-size="12" fill="#475569">HTTP, HLS, and YouTube downloads — local macOS</text>
    <text x="503" y="332" class="sans" font-size="12" fill="#475569">queue.</text>
  </g>
  <g>
    <rect x="36" y="370" width="888" height="108" rx="10" fill="#ffffff" stroke="#cbd5e1"/>
    <text x="52" y="398" class="mono" font-size="11" fill="#b45309">03</text>
    <text x="908" y="398" class="mono" font-size="11" text-anchor="end" fill="#475569">Rust</text>
    <text x="52" y="420" class="sans" font-size="16" font-weight="600" fill="#0f172a">frostwall-beam</text>
    <text x="52" y="438" class="sans" font-size="12" fill="#475569">Encrypted transfer with pairing and receiver approval.</text>
  </g>
  <text x="36" y="514" class="mono" font-size="11" fill="#475569">Terminal</text>
  <g>
    <rect x="36" y="526" width="437" height="108" rx="10" fill="#ffffff" stroke="#cbd5e1"/>
    <text x="52" y="554" class="mono" font-size="11" fill="#b45309">04</text>
    <text x="457" y="554" class="mono" font-size="11" text-anchor="end" fill="#475569">TypeScript</text>
    <text x="52" y="576" class="sans" font-size="16" font-weight="600" fill="#0f172a">calder</text>
    <text x="52" y="594" class="sans" font-size="12" fill="#475569">Run Claude Code, Codex, Cursor, and Antigravity</text>
    <text x="52" y="610" class="sans" font-size="12" fill="#475569">side by side.</text>
  </g>
  <g>
    <rect x="487" y="526" width="437" height="108" rx="10" fill="#ffffff" stroke="#cbd5e1"/>
    <text x="503" y="554" class="mono" font-size="11" fill="#b45309">05</text>
    <text x="908" y="554" class="mono" font-size="11" text-anchor="end" fill="#475569">Go</text>
    <text x="503" y="576" class="sans" font-size="16" font-weight="600" fill="#0f172a">sift</text>
    <text x="503" y="594" class="sans" font-size="12" fill="#475569">Review-first cleaner — preview before anything</text>
    <text x="503" y="610" class="sans" font-size="12" fill="#475569">is deleted.</text>
  </g>
  <text x="36" y="670" class="mono" font-size="11" fill="#475569">Application security</text>
  <g>
    <rect x="36" y="682" width="437" height="108" rx="10" fill="#ffffff" stroke="#cbd5e1"/>
    <text x="52" y="710" class="mono" font-size="11" fill="#b45309">06</text>
    <text x="457" y="710" class="mono" font-size="11" text-anchor="end" fill="#475569">Go</text>
    <text x="52" y="732" class="sans" font-size="16" font-weight="600" fill="#0f172a">ironsentinel</text>
    <text x="52" y="750" class="sans" font-size="12" fill="#475569">Guided scans, runtime trust checks, and evidence</text>
    <text x="52" y="766" class="sans" font-size="12" fill="#475569">reports.</text>
  </g>
  <g>
    <rect x="487" y="682" width="437" height="108" rx="10" fill="#ffffff" stroke="#cbd5e1"/>
    <text x="503" y="710" class="mono" font-size="11" fill="#b45309">07</text>
    <text x="908" y="710" class="mono" font-size="11" text-anchor="end" fill="#475569">C++</text>
    <text x="503" y="732" class="sans" font-size="16" font-weight="600" fill="#0f172a">byteback</text>
    <text x="503" y="750" class="sans" font-size="12" fill="#475569">Windows forensic imaging and recovery, native</text>
    <text x="503" y="766" class="sans" font-size="12" fill="#475569">engine.</text>
  </g>
  <text x="36" y="826" class="mono" font-size="11" fill="#475569">Developer tooling</text>
  <g>
    <rect x="36" y="838" width="437" height="108" rx="10" fill="#ffffff" stroke="#cbd5e1"/>
    <text x="52" y="866" class="mono" font-size="11" fill="#b45309">08</text>
    <text x="457" y="866" class="mono" font-size="11" text-anchor="end" fill="#475569">Python</text>
    <text x="52" y="888" class="sans" font-size="16" font-weight="600" fill="#0f172a">agent-atlas</text>
    <text x="52" y="906" class="sans" font-size="12" fill="#475569">Installer and router for agent-safe open-web</text>
    <text x="52" y="922" class="sans" font-size="12" fill="#475569">research.</text>
  </g>
  <g>
    <rect x="487" y="838" width="437" height="108" rx="10" fill="#ffffff" stroke="#cbd5e1"/>
    <text x="503" y="866" class="mono" font-size="11" fill="#b45309">09</text>
    <text x="908" y="866" class="mono" font-size="11" text-anchor="end" fill="#475569">Python</text>
    <text x="503" y="888" class="sans" font-size="16" font-weight="600" fill="#0f172a">codebase-audit</text>
    <text x="503" y="906" class="sans" font-size="12" fill="#475569">Whole-repo architecture audit with cited</text>
    <text x="503" y="922" class="sans" font-size="12" fill="#475569">evidence.</text>
  </g>
  <text x="36" y="982" class="mono" font-size="11" fill="#475569">In progress</text>
  <g>
    <rect x="36" y="994" width="437" height="108" rx="10" fill="#ffffff" stroke="#cbd5e1"/>
    <text x="52" y="1022" class="mono" font-size="11" fill="#b45309">10</text>
    <text x="457" y="1022" class="mono" font-size="11" text-anchor="end" fill="#475569">Rust</text>
    <text x="52" y="1044" class="sans" font-size="16" font-weight="600" fill="#0f172a">deskward</text>
    <text x="52" y="1062" class="sans" font-size="12" fill="#475569">Tailscale remote desktop — Rust core, Flutter</text>
    <text x="52" y="1078" class="sans" font-size="12" fill="#475569">client.</text>
  </g>
  <g>
    <rect x="487" y="994" width="437" height="108" rx="10" fill="#ffffff" stroke="#cbd5e1"/>
    <text x="503" y="1022" class="mono" font-size="11" fill="#b45309">11</text>
    <text x="908" y="1022" class="mono" font-size="11" text-anchor="end" fill="#475569">TypeScript</text>
    <text x="503" y="1044" class="sans" font-size="16" font-weight="600" fill="#0f172a">duetto</text>
    <text x="503" y="1062" class="sans" font-size="12" fill="#475569">Udemy: dual captions, notes, precision playback.</text>
  </g>
</svg>