<svg width="1000" height="420" viewBox="0 0 1000 420" fill="none" xmlns="http://www.w3.org/2000/svg">
  <defs>
    <linearGradient id="bg" x1="60" y1="20" x2="944" y2="398" gradientUnits="userSpaceOnUse">
      <stop stop-color="#F8FBFF"/>
      <stop offset="0.54" stop-color="#EFF5FA"/>
      <stop offset="1" stop-color="#E7EEF7"/>
    </linearGradient>
    <radialGradient id="glowLeft" cx="0" cy="0" r="1" gradientUnits="userSpaceOnUse" gradientTransform="translate(206 90) rotate(90) scale(198 224)">
      <stop stop-color="#67E8F9" stop-opacity="0.26"/>
      <stop offset="1" stop-color="#67E8F9" stop-opacity="0"/>
    </radialGradient>
    <radialGradient id="glowRight" cx="0" cy="0" r="1" gradientUnits="userSpaceOnUse" gradientTransform="translate(864 316) rotate(90) scale(204 226)">
      <stop stop-color="#60A5FA" stop-opacity="0.22"/>
      <stop offset="1" stop-color="#60A5FA" stop-opacity="0"/>
    </radialGradient>
    <pattern id="grid" width="40" height="40" patternUnits="userSpaceOnUse">
      <path d="M40 0H0V40" fill="none" stroke="#8AA1B8" stroke-opacity="0.12"/>
    </pattern>
    <linearGradient id="panel" x1="678" y1="72" x2="918" y2="348" gradientUnits="userSpaceOnUse">
      <stop stop-color="#FFFFFF"/>
      <stop offset="1" stop-color="#F5F9FD"/>
    </linearGradient>
  </defs>

  <rect width="1000" height="420" rx="30" fill="url(#bg)"/>
  <rect width="1000" height="420" rx="30" fill="url(#grid)"/>
  <circle cx="206" cy="90" r="198" fill="url(#glowLeft)"/>
  <circle cx="864" cy="316" r="204" fill="url(#glowRight)"/>
  <rect x="22" y="22" width="956" height="376" rx="26" stroke="#D5E0EA"/>

  <rect x="72" y="58" width="220" height="40" rx="20" fill="#FFFFFF" stroke="#D5E0EA"/>
  <text x="95" y="83" fill="#5F768D" font-size="17" font-family="Arial, Helvetica, sans-serif" letter-spacing="0.12em">LOCAL-FIRST BUILDER</text>

  <rect x="72" y="118" width="10" height="204" rx="5" fill="#0EA5E9"/>
  <text x="106" y="156" fill="#0F172A" font-size="68" font-weight="700" font-family="Georgia, 'Times New Roman', serif">Batuhan Yüksel</text>
  <text x="106" y="218" fill="#22364B" font-size="36" font-weight="700" font-family="Arial, Helvetica, sans-serif">OCR, terminal, and security tooling</text>
  <text x="106" y="260" fill="#22364B" font-size="36" font-weight="700" font-family="Arial, Helvetica, sans-serif">built with Swift, Go, and Python</text>
  <text x="106" y="320" fill="#0284C7" font-size="24" font-weight="700" font-family="Arial, Helvetica, sans-serif">Local-first / CLI-TUI / AppSec / applied AI</text>

  <g opacity="0.98">
    <rect x="678" y="72" width="250" height="276" rx="28" fill="url(#panel)" stroke="#D5E0EA"/>
    <rect x="706" y="108" width="194" height="60" rx="18" fill="#FFFFFF" stroke="#D9E4EE"/>
    <rect x="706" y="186" width="194" height="88" rx="18" fill="#F8FBFF" stroke="#D7E3ED"/>
    <rect x="706" y="292" width="194" height="34" rx="17" fill="#FFFFFF" stroke="#D9E4EE"/>

    <circle cx="730" cy="138" r="10" fill="#0EA5E9"/>
    <rect x="752" y="128" width="116" height="9" rx="4.5" fill="#DCEAF7"/>
    <rect x="752" y="145" width="98" height="9" rx="4.5" fill="#E6F0F8"/>

    <circle cx="730" cy="218" r="10" fill="#3B82F6"/>
    <rect x="752" y="208" width="138" height="9" rx="4.5" fill="#DCEAF7"/>
    <rect x="752" y="225" width="92" height="9" rx="4.5" fill="#E6F0F8"/>
    <path d="M730 250H886" stroke="#D0DFEC" stroke-width="7" stroke-linecap="round"/>
    <path d="M730 250C760 224 794 210 832 210C856 210 878 218 900 232" stroke="#0EA5E9" stroke-width="4.5" stroke-linecap="round"/>

    <circle cx="730" cy="309" r="10" fill="#F59E0B"/>
    <rect x="752" y="301" width="124" height="9" rx="4.5" fill="#DCEAF7"/>
  </g>
</svg>
