<svg width="1000" height="420" viewBox="0 0 1000 420" fill="none" xmlns="http://www.w3.org/2000/svg">
  <defs>
    <linearGradient id="bg" x1="64" y1="24" x2="944" y2="396" gradientUnits="userSpaceOnUse">
      <stop stop-color="#07111B"/>
      <stop offset="0.52" stop-color="#0A1624"/>
      <stop offset="1" stop-color="#0F2239"/>
    </linearGradient>
    <radialGradient id="glowLeft" cx="0" cy="0" r="1" gradientUnits="userSpaceOnUse" gradientTransform="translate(208 92) rotate(90) scale(198 224)">
      <stop stop-color="#22D3EE" stop-opacity="0.20"/>
      <stop offset="1" stop-color="#22D3EE" stop-opacity="0"/>
    </radialGradient>
    <radialGradient id="glowRight" cx="0" cy="0" r="1" gradientUnits="userSpaceOnUse" gradientTransform="translate(864 316) rotate(90) scale(204 226)">
      <stop stop-color="#3B82F6" stop-opacity="0.20"/>
      <stop offset="1" stop-color="#3B82F6" stop-opacity="0"/>
    </radialGradient>
    <pattern id="grid" width="40" height="40" patternUnits="userSpaceOnUse">
      <path d="M40 0H0V40" fill="none" stroke="#9BB3C8" stroke-opacity="0.08"/>
    </pattern>
    <linearGradient id="panel" x1="688" y1="70" x2="914" y2="348" gradientUnits="userSpaceOnUse">
      <stop stop-color="#102134"/>
      <stop offset="1" stop-color="#132941"/>
    </linearGradient>
  </defs>

  <rect width="1000" height="420" rx="30" fill="url(#bg)"/>
  <rect width="1000" height="420" rx="30" fill="url(#grid)"/>
  <circle cx="208" cy="92" r="198" fill="url(#glowLeft)"/>
  <circle cx="864" cy="316" r="204" fill="url(#glowRight)"/>
  <rect x="22" y="22" width="956" height="376" rx="26" stroke="#20364A"/>

  <rect x="72" y="58" width="250" height="40" rx="20" fill="#0E1D2D" stroke="#274255"/>
  <text x="95" y="83" fill="#A9C0D5" font-size="17" font-family="Arial, Helvetica, sans-serif" letter-spacing="0.12em">OCR · APPSEC · CLI TOOLS</text>

  <rect x="72" y="118" width="10" height="204" rx="5" fill="#22D3EE"/>
  <text x="106" y="156" fill="#F8FAFC" font-size="68" font-weight="700" font-family="Georgia, 'Times New Roman', serif">Batuhan Yüksel</text>
  <text x="106" y="218" fill="#D8E4EE" font-size="36" font-weight="700" font-family="Arial, Helvetica, sans-serif">OCR, terminal, and security tooling</text>
  <text x="106" y="260" fill="#D8E4EE" font-size="36" font-weight="700" font-family="Arial, Helvetica, sans-serif">built with Swift, Go, and Python</text>
  <text x="106" y="320" fill="#28D4F2" font-size="24" font-weight="700" font-family="Arial, Helvetica, sans-serif">Local-first / CLI-TUI / AppSec / applied AI</text>

  <g opacity="0.96">
    <rect x="678" y="72" width="250" height="276" rx="28" fill="url(#panel)" stroke="#29445B"/>
    <rect x="706" y="108" width="194" height="60" rx="18" fill="#0E1D2E" stroke="#2C4860"/>
    <rect x="706" y="186" width="194" height="88" rx="18" fill="#102338" stroke="#2D4C66"/>
    <rect x="706" y="292" width="194" height="34" rx="17" fill="#0E1D2E" stroke="#2C4860"/>

    <circle cx="730" cy="138" r="10" fill="#22D3EE"/>
    <rect x="752" y="128" width="116" height="9" rx="4.5" fill="#1B344B"/>
    <rect x="752" y="145" width="98" height="9" rx="4.5" fill="#173047"/>

    <circle cx="730" cy="218" r="10" fill="#3B82F6"/>
    <rect x="752" y="208" width="138" height="9" rx="4.5" fill="#1B344B"/>
    <rect x="752" y="225" width="92" height="9" rx="4.5" fill="#173047"/>
    <path d="M730 250H886" stroke="#31536F" stroke-width="7" stroke-linecap="round"/>
    <path d="M730 250C760 224 794 210 832 210C856 210 878 218 900 232" stroke="#28D4F2" stroke-width="4.5" stroke-linecap="round"/>

    <circle cx="730" cy="309" r="10" fill="#F59E0B"/>
    <rect x="752" y="301" width="124" height="9" rx="4.5" fill="#1B344B"/>
  </g>
</svg>
