<svg width="980" height="300" viewBox="0 0 980 300" fill="none" xmlns="http://www.w3.org/2000/svg">
  <defs>
    <linearGradient id="bg" x1="52" y1="20" x2="932" y2="280" gradientUnits="userSpaceOnUse">
      <stop stop-color="#07111B"/>
      <stop offset="0.5" stop-color="#0A1624"/>
      <stop offset="1" stop-color="#10243C"/>
    </linearGradient>
    <radialGradient id="glowA" cx="0" cy="0" r="1" gradientUnits="userSpaceOnUse" gradientTransform="translate(180 82) rotate(90) scale(146 198)">
      <stop stop-color="#22D3EE" stop-opacity="0.18"/>
      <stop offset="1" stop-color="#22D3EE" stop-opacity="0"/>
    </radialGradient>
    <radialGradient id="glowB" cx="0" cy="0" r="1" gradientUnits="userSpaceOnUse" gradientTransform="translate(818 232) rotate(90) scale(168 210)">
      <stop stop-color="#3B82F6" stop-opacity="0.16"/>
      <stop offset="1" stop-color="#3B82F6" stop-opacity="0"/>
    </radialGradient>
    <pattern id="grid" width="40" height="40" patternUnits="userSpaceOnUse">
      <path d="M40 0H0V40" fill="none" stroke="#9BB3C8" stroke-opacity="0.08"/>
    </pattern>
    <linearGradient id="panel" x1="680" y1="54" x2="896" y2="246" gradientUnits="userSpaceOnUse">
      <stop stop-color="#0F1F31"/>
      <stop offset="1" stop-color="#13273D"/>
    </linearGradient>
  </defs>

  <rect width="980" height="300" rx="24" fill="url(#bg)"/>
  <rect width="980" height="300" rx="24" fill="url(#grid)"/>
  <circle cx="180" cy="82" r="146" fill="url(#glowA)"/>
  <circle cx="818" cy="232" r="168" fill="url(#glowB)"/>
  <rect x="18" y="18" width="944" height="264" rx="20" stroke="#20364A"/>

  <rect x="56" y="48" width="196" height="32" rx="16" fill="#0E1D2D" stroke="#274255"/>
  <text x="78" y="67" fill="#A9C0D5" font-size="14" font-family="Arial, Helvetica, sans-serif" letter-spacing="0.12em">SWIFT · GO · PYTHON</text>

  <rect x="56" y="94" width="8" height="122" rx="4" fill="#22D3EE"/>
  <text x="86" y="126" fill="#F8FAFC" font-size="52" font-weight="700" font-family="Georgia, 'Times New Roman', serif">Batuhan Yüksel</text>
  <text x="86" y="178" fill="#D8E4EE" font-size="30" font-weight="700" font-family="Arial, Helvetica, sans-serif">OCR, CLI, and developer tools</text>
  <text x="86" y="212" fill="#D8E4EE" font-size="30" font-weight="700" font-family="Arial, Helvetica, sans-serif">for local-first workflows</text>

  <text x="86" y="252" fill="#28D4F2" font-size="19" font-weight="700" font-family="Arial, Helvetica, sans-serif">AppSec · workflow software · applied AI</text>

  <g opacity="0.94">
    <rect x="690" y="56" width="220" height="188" rx="24" fill="url(#panel)" stroke="#28445B"/>
    <rect x="716" y="80" width="168" height="42" rx="14" fill="#0D1C2D" stroke="#2A455D"/>
    <circle cx="738" cy="101" r="8" fill="#22D3EE"/>
    <rect x="756" y="94" width="92" height="7" rx="3.5" fill="#21405B"/>
    <rect x="756" y="106" width="76" height="7" rx="3.5" fill="#17334B"/>

    <rect x="716" y="136" width="168" height="66" rx="16" fill="#102338" stroke="#2B4963"/>
    <circle cx="738" cy="160" r="8" fill="#3B82F6"/>
    <rect x="756" y="154" width="116" height="7" rx="3.5" fill="#21405B"/>
    <rect x="756" y="166" width="86" height="7" rx="3.5" fill="#17334B"/>
    <path d="M736 186H870" stroke="#31536F" stroke-width="6" stroke-linecap="round"/>
    <path d="M736 186C762 164 791 152 824 152C847 152 868 159 886 170" stroke="#28D4F2" stroke-width="4" stroke-linecap="round"/>

    <rect x="716" y="216" width="168" height="14" rx="7" fill="#0D1C2D" stroke="#2A455D"/>
    <circle cx="736" cy="223" r="6" fill="#F59E0B"/>
    <rect x="750" y="220" width="88" height="6" rx="3" fill="#21405B"/>
  </g>
</svg>
