<svg width="1280" height="420" viewBox="0 0 1280 420" fill="none" xmlns="http://www.w3.org/2000/svg">
  <defs>
    <linearGradient id="bg" x1="64" y1="36" x2="1226" y2="390" gradientUnits="userSpaceOnUse">
      <stop stop-color="#F8FBFF"/>
      <stop offset="1" stop-color="#EEF4FA"/>
    </linearGradient>
    <radialGradient id="glowA" cx="0" cy="0" r="1" gradientUnits="userSpaceOnUse" gradientTransform="translate(178 94) rotate(90) scale(188)">
      <stop stop-color="#4CC9F0" stop-opacity="0.28"/>
      <stop offset="1" stop-color="#4CC9F0" stop-opacity="0"/>
    </radialGradient>
    <radialGradient id="glowB" cx="0" cy="0" r="1" gradientUnits="userSpaceOnUse" gradientTransform="translate(1132 312) rotate(90) scale(220)">
      <stop stop-color="#60A5FA" stop-opacity="0.26"/>
      <stop offset="1" stop-color="#60A5FA" stop-opacity="0"/>
    </radialGradient>
    <pattern id="grid" width="40" height="40" patternUnits="userSpaceOnUse">
      <path d="M40 0H0V40" fill="none" stroke="#7D97B1" stroke-opacity="0.16"/>
    </pattern>
    <filter id="shadow" x="-20%" y="-20%" width="140%" height="140%">
      <feDropShadow dx="0" dy="16" stdDeviation="14" flood-color="#94A3B8" flood-opacity="0.20"/>
    </filter>
  </defs>

  <rect width="1280" height="420" rx="32" fill="url(#bg)"/>
  <rect width="1280" height="420" rx="32" fill="url(#grid)"/>
  <circle cx="178" cy="94" r="188" fill="url(#glowA)"/>
  <circle cx="1132" cy="312" r="220" fill="url(#glowB)"/>
  <rect x="24" y="24" width="1232" height="372" rx="28" stroke="#D4DFEA"/>

  <g filter="url(#shadow)">
    <rect x="764" y="64" width="448" height="292" rx="28" fill="#FFFFFF" fill-opacity="0.88" stroke="#D7E2EC"/>
  </g>

  <rect x="72" y="70" width="164" height="34" rx="17" fill="#F8FBFF" stroke="#D5E0EA"/>
  <text x="94" y="92" fill="#52657A" font-size="16" font-family="Segoe UI, Arial, sans-serif" letter-spacing="0.04em">batu3384 / profile</text>

  <text x="72" y="160" fill="#0F172A" font-size="54" font-weight="700" font-family="Segoe UI, Arial, sans-serif">Batuhan Yuksel</text>
  <text x="72" y="205" fill="#243449" font-size="28" font-weight="600" font-family="Segoe UI, Arial, sans-serif">Local-first tools, OCR workflows,</text>
  <text x="72" y="241" fill="#243449" font-size="28" font-weight="600" font-family="Segoe UI, Arial, sans-serif">and security-focused developer products.</text>

  <text x="72" y="291" fill="#0284C7" font-size="21" font-weight="700" font-family="Segoe UI, Arial, sans-serif">Swift + Go + Python</text>
  <text x="72" y="324" fill="#4A6077" font-size="18" font-family="Segoe UI, Arial, sans-serif">Building across Apple platforms, AppSec, CLI/TUI, and applied AI.</text>

  <rect x="72" y="348" width="144" height="30" rx="15" fill="#FFFFFF" stroke="#D5E0EA"/>
  <rect x="224" y="348" width="258" height="30" rx="15" fill="#FFFFFF" stroke="#D5E0EA"/>
  <rect x="490" y="348" width="96" height="30" rx="15" fill="#FFFFFF" stroke="#D5E0EA"/>
  <text x="94" y="368" fill="#334155" font-size="14" font-family="Segoe UI, Arial, sans-serif">Istanbul, Turkey</text>
  <text x="246" y="368" fill="#334155" font-size="14" font-family="Segoe UI, Arial, sans-serif">MIS @ Dokuz Eylul University</text>
  <text x="520" y="368" fill="#334155" font-size="14" font-family="Segoe UI, Arial, sans-serif">TR / EN</text>

  <text x="796" y="96" fill="#4C6B88" font-size="14" font-weight="700" font-family="Segoe UI, Arial, sans-serif" letter-spacing="0.08em">SELECTED PUBLIC WORK</text>

  <rect x="796" y="118" width="184" height="94" rx="20" fill="#F9FCFF" stroke="#D5E0EA"/>
  <rect x="996" y="118" width="184" height="94" rx="20" fill="#F9FCFF" stroke="#D5E0EA"/>
  <rect x="796" y="226" width="184" height="94" rx="20" fill="#F9FCFF" stroke="#D5E0EA"/>
  <rect x="996" y="226" width="184" height="94" rx="20" fill="#F9FCFF" stroke="#D5E0EA"/>

  <text x="816" y="152" fill="#0F172A" font-size="20" font-weight="700" font-family="Segoe UI, Arial, sans-serif">ScreenTextGrab</text>
  <text x="816" y="178" fill="#597187" font-size="14" font-family="Segoe UI, Arial, sans-serif">macOS OCR utility</text>

  <text x="1016" y="152" fill="#0F172A" font-size="20" font-weight="700" font-family="Segoe UI, Arial, sans-serif">SIFT</text>
  <text x="1016" y="178" fill="#597187" font-size="14" font-family="Segoe UI, Arial, sans-serif">review-first terminal cleaner</text>

  <text x="816" y="260" fill="#0F172A" font-size="20" font-weight="700" font-family="Segoe UI, Arial, sans-serif">IronSentinel</text>
  <text x="816" y="286" fill="#597187" font-size="14" font-family="Segoe UI, Arial, sans-serif">local-first AppSec CLI</text>

  <text x="1016" y="260" fill="#0F172A" font-size="20" font-weight="700" font-family="Segoe UI, Arial, sans-serif">VetVision</text>
  <text x="1016" y="286" fill="#597187" font-size="14" font-family="Segoe UI, Arial, sans-serif">computer vision + LLM</text>

  <circle cx="1160" cy="92" r="8" fill="#0EA5E9"/>
  <circle cx="1188" cy="92" r="8" fill="#2563EB"/>
  <circle cx="1216" cy="92" r="8" fill="#14B8A6"/>
</svg>
